<svg xmlns="http://www.w3.org/2000/svg" viewBox="0 0 100 100">
  <rect width="100" height="100" rx="20" fill="#7c3aed"/>
  <path fill="white" d="M75 20a45 45 0 0 0-11-3.4.17.17 0 0 0-.18.08 31 31 0 0 0-1.37 2.82 41 41 0 0 0-12.34 0 28.5 28.5 0 0 0-1.39-2.82.17.17 0 0 0-.18-.08A44.6 44.6 0 0 0 37 20a.16.16 0 0 0-.07.06C29 31.5 27 42.8 27.9 54a.18.18 0 0 0 .07.13 45 45 0 0 0 13.5 6.83.18.18 0 0 0 .19-.06 32.1 32.1 0 0 0 2.76-4.49.17.17 0 0 0-.09-.24 29.7 29.7 0 0 1-4.21-2 .17.17 0 0 1-.02-.29c.28-.21.57-.43.84-.66a.17.17 0 0 1 .17-.02c8.84 4.04 18.42 4.04 27.16 0a.17.17 0 0 1 .18.02c.27.23.55.45.84.66a.17.17 0 0 1-.01.29 27.7 27.7 0 0 1-4.22 2 .17.17 0 0 0-.09.24 36 36 0 0 0 2.76 4.49.17.17 0 0 0 .19.06A44.8 44.8 0 0 0 73 54.1a.18.18 0 0 0 .07-.12C75 41 72 30 75.07 20.06a.14.14 0 0 0-.07-.06zM41.5 47.3c-2.66 0-4.85-2.44-4.85-5.44s2.15-5.44 4.85-5.44c2.72 0 4.89 2.46 4.85 5.44 0 3-2.15 5.44-4.85 5.44zm17.94 0c-2.66 0-4.85-2.44-4.85-5.44s2.15-5.44 4.85-5.44c2.72 0 4.89 2.46 4.85 5.44 0 3-2.13 5.44-4.85 5.44z"/>
</svg>
